<svg xmlns="http://www.w3.org/2000/svg" height="40px" viewBox="0 -960 960 960" width="40px" fill="#e8eaed"><path d="M684.02-146.67q20.98 0 35.15-14.19 14.16-14.19 14.16-35.16 0-20.98-14.19-35.15-14.19-14.16-35.16-14.16-20.98 0-35.15 14.19-14.16 14.19-14.16 35.16 0 20.98 14.19 35.15 14.19 14.16 35.16 14.16Zm0-568q20.98 0 35.15-14.19 14.16-14.19 14.16-35.16 0-20.98-14.19-35.15-14.19-14.16-35.16-14.16-20.98 0-35.15 14.19-14.16 14.19-14.16 35.16 0 20.98 14.19 35.15 14.19 14.16 35.16 14.16ZM86-447.33q-3.33-8-4.67-16Q80-471.33 80-480q0-48.33 33.83-82.17Q147.67-596 196-596q24 0 45 9.03T278-562l294.33-170q-2-7.67-3.16-15.5Q568-755.33 568-764q0-48.33 33.83-82.17Q635.67-880 684-880t82.17 33.83Q800-812.33 800-764t-33.83 82.17Q732.33-648 684-648q-23.52 0-44.09-8.83-20.58-8.84-36.58-23.84l-338 191q-7.79-1.66-15.79-2.66-8-1-16.21-1-41 0-78.44 11.96-37.45 11.96-68.89 34.04ZM684-80q-48.33 0-82.17-33.83Q568-147.67 568-196q0-7.33 4.33-32l-83.66-49.33q-4.67-23.34-13-45.5Q467.33-345 455-365l149 85q16-15 36.4-23.5 20.39-8.5 43.7-8.5 48.57 0 82.23 33.83Q800-244.33 800-196t-33.83 82.17Q732.33-80 684-80ZM233.33-40q-79.66 0-136.5-56.83Q40-153.67 40-233.33q0-79.67 56.83-136.5 56.84-56.84 136.5-56.84 79.67 0 136.5 56.84 56.84 56.83 56.84 136.5 0 79.66-56.84 136.5Q313-40 233.33-40Zm0-167.33 68.67 69L327-163l-69.67-69.67 71-71-24.66-24.66L233.33-258 163-328.33l-24.67 24.66 70.34 70.34L138.33-163l25.34 25.33 69.66-69.66ZM684-196Zm0-568Z"/></svg>